# xmcd
#
# Track frame offsets:
#	150
#	33663
#	84272
#	134758
#
# Disc length: 2160 seconds
#
# Revision: 0
# Processed by: cddbd v1.5.2PL0 Copyright (c) Steve Scherf et al.
# Submitted via: audiograbber 1.83.01
#
DISCID=30086e04
DTITLE=Grateful Dead - 93-03-11 Rosemont Horizon, Rosemont IL
DYEAR=1900
DGENRE=
TTITLE0=The Other One
TTITLE1=Days Between
TTITLE2=Around and Around
TTITLE3=Liberty
EXTD=
EXTT0=
EXTT1=
EXTT2=
EXTT3=
PLAYORDER=
